<svg xmlns="http://www.w3.org/2000/svg" width="152.628" height="30" viewBox="0 0 152.628 30">
  <g id="Group_39" data-name="Group 39" transform="translate(-50 -25.7)">
    <path id="Path_1" data-name="Path 1" d="M55.086,46.19l10.66,23.562h4.237L56.769,40.578h-.822L42.415,69.752h1.747Z" transform="translate(9.417 -14.878)"/>
    <path id="Path_2" data-name="Path 2" d="M92.046,71.038a5.764,5.764,0,0,0,1.565-.218A4.569,4.569,0,0,0,95,70.175a3.4,3.4,0,0,0,.985-1.05,2.764,2.764,0,0,0,.371-1.444,3.094,3.094,0,0,0-.509-1.752,5.924,5.924,0,0,0-1.331-1.4,13.3,13.3,0,0,0-1.881-1.2q-1.057-.564-2.155-1.13T88.323,61a10.71,10.71,0,0,1-1.881-1.388A6.631,6.631,0,0,1,85.111,57.9a4.508,4.508,0,0,1-.509-2.171,5.627,5.627,0,0,1,.46-2.277A5.067,5.067,0,0,1,86.41,51.64a6.435,6.435,0,0,1,2.188-1.2A9.352,9.352,0,0,1,91.577,50a10.409,10.409,0,0,1,2.713.323,6.7,6.7,0,0,1,2.1.952,6,6,0,0,1,1.534,1.551,8.145,8.145,0,0,1,1.017,2.131l-1.84.84a8.492,8.492,0,0,0-.823-1.8,5.694,5.694,0,0,0-1.195-1.4,5.043,5.043,0,0,0-1.607-.9,6.3,6.3,0,0,0-2.059-.314,5.108,5.108,0,0,0-1.776.282,3.9,3.9,0,0,0-1.267.743,3,3,0,0,0-.759,1.033,2.889,2.889,0,0,0-.25,1.171,2.546,2.546,0,0,0,.516,1.542,6.233,6.233,0,0,0,1.373,1.323,16.6,16.6,0,0,0,1.945,1.2q1.09.581,2.22,1.179t2.22,1.243a12.347,12.347,0,0,1,1.945,1.413,6.671,6.671,0,0,1,1.372,1.68,4.067,4.067,0,0,1,.517,2.041,5.985,5.985,0,0,1-.484,2.4,5.339,5.339,0,0,1-1.454,1.954,7.142,7.142,0,0,1-2.4,1.315,10.466,10.466,0,0,1-3.342.485,10.246,10.246,0,0,1-2.761-.339,7.021,7.021,0,0,1-2.139-.985A6.449,6.449,0,0,1,85.3,69.5a8.43,8.43,0,0,1-1.082-2.122l1.921-.791a7.078,7.078,0,0,0,.912,1.872,6.091,6.091,0,0,0,1.333,1.4,5.8,5.8,0,0,0,1.686.88,6.257,6.257,0,0,0,1.978.306" transform="translate(-0.094 -16.695)"/>
    <path id="Path_3" data-name="Path 3" d="M113.748,50.64h3.6V70.66h10.785v1.389H113.748Z" transform="translate(-6.843 -16.849)"/>
    <path id="Path_4" data-name="Path 4" d="M145.882,63.369h7.9l-3.891-8.476ZM151.291,50l10.075,21.893H157.7l-3.261-7.136h-9.187l-3.374,7.136h-1.809L150.386,50Z" transform="translate(-12.785 -16.695)"/>
    <path id="Path_5" data-name="Path 5" d="M176.184,50.64H178.2L192.232,66.3h.162V50.64h1.582V72.549h-.84l-15.208-17.4H177.8v16.9h-1.615Z" transform="translate(-21.057 -16.849)"/>
    <path id="Path_6" data-name="Path 6" d="M214.843,70.483h3.827a9.647,9.647,0,0,0,3.406-.6,7.756,7.756,0,0,0,2.786-1.776,8.413,8.413,0,0,0,1.872-2.9,10.683,10.683,0,0,0,.687-3.98,9.94,9.94,0,0,0-.646-3.641,8.419,8.419,0,0,0-1.809-2.849,8.132,8.132,0,0,0-2.768-1.857,9.148,9.148,0,0,0-3.512-.662h-3.842Zm-3.6-19.843h7.136a22.886,22.886,0,0,1,5.667.613A9.721,9.721,0,0,1,228,53.223a10.28,10.28,0,0,1,2.72,3.552,10.436,10.436,0,0,1,.913,4.375,11.078,11.078,0,0,1-.816,4.247,9.8,9.8,0,0,1-2.39,3.463,11.336,11.336,0,0,1-3.891,2.333,15.247,15.247,0,0,1-5.3.856h-7.992Z" transform="translate(-29.007 -16.849)"/>
    <path id="Path_7" data-name="Path 7" d="M64.992,74.554H69.4C64.5,63.9,53.742,58.491,40,65.563c15.348-4.059,22.882,3.525,24.992,8.99" transform="translate(10 -19.68)" fill="#df8f17"/>
  </g>
</svg>
